# 3ds Max Wavefront OBJ Exporter v0.97b - (c)2007 guruware
# File Created: 16.12.2016 16:24:37

mtllib vending machine.mtl

#
# object Box001
#

v  -56.6644 0.0000 4.9049
v  -56.6644 0.0000 -30.7670
v  -1.4777 0.0000 -30.7670
v  -45.6271 0.0000 9.4493
v  -1.4777 0.0000 4.9049
v  -12.5151 0.0000 9.4493
v  -23.5524 0.0000 11.7254
v  -34.5897 0.0000 11.7254
v  -12.5151 89.1001 9.4493
v  -1.4777 89.1001 4.9049
v  -1.4777 89.1001 -30.7670
v  -23.5524 89.1001 11.7254
v  -34.5897 89.1001 11.7254
v  -45.6271 89.1001 9.4493
v  -56.6644 89.1001 4.9049
v  -56.6644 89.1001 -30.7670
v  -45.6271 15.9215 9.4493
v  -45.6271 31.0330 9.4493
v  -34.5897 15.9215 11.7254
v  -23.5524 15.9215 11.7254
v  -12.5151 15.9215 9.4493
v  -12.5151 31.0330 9.4493
v  -34.5897 31.0330 11.7254
v  -23.5524 31.0330 11.7254
v  -23.5524 18.0511 6.1928
v  -14.2192 18.0511 3.9168
v  -14.2192 28.9034 3.9168
v  -23.5524 28.9034 6.1928
v  -34.5897 18.0511 6.1928
v  -34.5897 28.9034 6.1928
v  -43.9230 28.9034 3.9168
v  -43.9230 18.0511 3.9168
v  -43.9230 18.0511 9.4493
v  -43.9230 28.9034 9.4493
v  -14.2192 18.0511 9.4493
v  -23.5524 18.0511 11.7254
v  -34.5897 18.0511 11.7254
v  -14.2192 28.9034 9.4493
v  -34.5897 28.9034 11.7254
v  -23.5524 28.9034 11.7254
# 40 vertices

vn 0.0000 -1.0000 -0.0000
vn 0.0000 1.0000 -0.0000
vn -0.3807 0.0000 0.9247
vn -0.2926 0.0000 0.9562
vn -0.3224 0.0000 0.9466
vn -0.1015 0.0000 0.9948
vn 0.1015 0.0000 0.9948
vn 0.2926 0.0000 0.9562
vn 0.3224 0.0000 0.9466
vn 0.3807 0.0000 0.9247
vn 1.0000 0.0000 -0.0000
vn 0.7071 0.0000 -0.7071
vn -1.0000 0.0000 -0.0000
vn 0.1193 0.0000 0.9929
vn 0.2369 0.0000 0.9715
vn -0.1193 0.0000 0.9929
vn -0.2369 0.0000 0.9715
vn 0.0000 0.0000 1.0000
vn 0.2168 0.1084 0.9702
vn -0.2168 0.1084 0.9702
vn -0.2168 -0.1084 0.9702
vn 0.2168 -0.1084 0.9702
vn 0.0000 0.0000 -1.0000
# 23 vertex normals

vt 0.7171 0.3969 0.0000
vt 0.9555 0.3969 0.0000
vt 0.9555 0.7656 0.0000
vt 0.6867 0.4706 0.0000
vt 0.7171 0.7656 0.0000
vt 0.6867 0.6919 0.0000
vt 0.6715 0.6181 0.0000
vt 0.6715 0.5444 0.0000
vt 0.9402 0.3050 0.0000
vt 0.9099 0.3787 0.0000
vt 0.6715 0.3787 0.0000
vt 0.9555 0.2312 0.0000
vt 0.9555 0.1575 0.0000
vt 0.9402 0.0837 0.0000
vt 0.9099 0.0100 0.0000
vt 0.6715 0.0100 0.0000
vt 0.3787 0.9885 0.0000
vt 0.3050 0.9885 0.0000
vt 0.3050 0.9015 0.0000
vt 0.3050 0.8207 0.0000
vt 0.3050 0.5119 0.0000
vt 0.3787 0.5119 0.0000
vt 0.2312 0.9885 0.0000
vt 0.2312 0.9015 0.0000
vt 0.1575 0.9885 0.0000
vt 0.1575 0.9015 0.0000
vt 0.0837 0.9885 0.0000
vt 0.0837 0.9015 0.0000
vt 0.0100 0.9900 0.0000
vt 0.0100 0.5119 0.0000
vt 0.0837 0.5119 0.0000
vt 0.0837 0.8207 0.0000
vt 0.6443 0.9884 0.0000
vt 0.4060 0.9884 0.0000
vt 0.4060 0.5116 0.0000
vt 0.6443 0.5116 0.0000
vt 0.6443 0.4851 0.0000
vt 0.4060 0.4851 0.0000
vt 0.4060 0.0100 0.0000
vt 0.6443 0.0100 0.0000
vt 0.2312 0.5119 0.0000
vt 0.2312 0.8207 0.0000
vt 0.1575 0.5119 0.0000
vt 0.1575 0.8207 0.0000
vt 0.7296 0.9199 0.0000
vt 0.7296 0.9822 0.0000
vt 0.6715 0.9822 0.0000
vt 0.6715 0.9199 0.0000
vt 0.7296 0.8461 0.0000
vt 0.6715 0.8461 0.0000
vt 0.6715 0.7838 0.0000
vt 0.7296 0.7838 0.0000
vt 0.2936 0.8919 0.0000
vt 0.2936 0.8337 0.0000
vt 0.0951 0.8919 0.0000
vt 0.1575 0.8919 0.0000
vt 0.2312 0.8919 0.0000
vt 0.0951 0.8337 0.0000
vt 0.2312 0.8337 0.0000
vt 0.1575 0.8337 0.0000
vt 0.9253 0.8690 0.0000
vt 0.9253 0.9271 0.0000
vt 0.8884 0.9271 0.0000
vt 0.8884 0.8690 0.0000
vt 0.7999 0.9199 0.0000
vt 0.7847 0.9822 0.0000
vt 0.7477 0.9822 0.0000
vt 0.7629 0.9199 0.0000
vt 0.7999 0.8461 0.0000
vt 0.7629 0.8461 0.0000
vt 0.7847 0.7838 0.0000
vt 0.7477 0.7838 0.0000
vt 0.8884 0.8418 0.0000
vt 0.8884 0.7838 0.0000
vt 0.9253 0.7838 0.0000
vt 0.9253 0.8418 0.0000
vt 0.8181 0.8461 0.0000
vt 0.8333 0.7838 0.0000
vt 0.8702 0.7838 0.0000
vt 0.8550 0.8461 0.0000
vt 0.8181 0.9199 0.0000
vt 0.8550 0.9199 0.0000
vt 0.8333 0.9822 0.0000
vt 0.8702 0.9822 0.0000
vt 0.3787 0.4864 0.0000
vt 0.0100 0.4864 0.0000
vt 0.0100 0.0100 0.0000
vt 0.3787 0.0100 0.0000
# 88 texture coords

g Box001
usemtl Material__183
s 2
f 1/1/1 2/2/1 3/3/1 4/4/1 
f 3/3/1 5/5/1 6/6/1 7/7/1 
f 3/3/1 7/7/1 8/8/1 4/4/1 
s 4
f 9/9/2 10/10/2 11/11/2 12/12/2 
f 13/13/2 12/12/2 11/11/2 14/14/2 
f 15/15/2 14/14/2 11/11/2 16/16/2 
s 8
f 1/17/3 4/18/4 17/19/5 18/20/5 
f 1/17/3 18/20/5 14/21/4 15/22/3 
f 8/23/6 19/24/6 17/19/5 4/18/4 
f 7/25/7 20/26/7 19/24/6 8/23/6 
f 6/27/8 21/28/9 20/26/7 7/25/7 
f 6/27/8 5/29/10 10/30/10 21/28/9 
f 10/30/10 9/31/8 22/32/9 21/28/9 
s 48
f 5/33/11 3/34/12 11/35/12 10/36/11 
s 64
f 2/37/13 1/38/13 15/39/13 16/40/13 
s 8
f 13/41/6 14/21/4 18/20/5 23/42/6 
f 12/43/7 13/41/6 23/42/6 24/44/7 
f 9/31/8 12/43/7 24/44/7 22/32/9 
f 25/45/14 26/46/15 27/47/15 28/48/14 
f 29/49/16 25/45/14 28/48/14 30/50/16 
f 30/50/16 31/51/17 32/52/17 29/49/16 
s off
f 18/20/18 17/19/18 33/53/18 34/54/18 
f 20/26/19 21/28/19 35/55/19 36/56/19 
f 19/24/18 20/26/18 36/56/18 37/57/18 
f 17/19/20 19/24/20 37/57/20 33/53/20 
f 21/28/18 22/32/18 38/58/18 35/55/18 
f 23/42/21 18/20/21 34/54/21 39/59/21 
f 24/44/18 23/42/18 39/59/18 40/60/18 
f 22/32/22 24/44/22 40/60/22 38/58/22 
f 34/61/11 33/62/11 32/63/11 31/64/11 
f 36/65/2 35/66/2 26/67/2 25/68/2 
f 37/69/2 36/65/2 25/68/2 29/70/2 
f 33/71/2 37/69/2 29/70/2 32/72/2 
f 35/73/13 38/74/13 27/75/13 26/76/13 
f 39/77/1 34/78/1 31/79/1 30/80/1 
f 40/81/1 39/77/1 30/80/1 28/82/1 
f 38/83/1 40/81/1 28/82/1 27/84/1 
s 48
f 3/85/12 2/86/23 16/87/23 11/88/12 
# 38 polygons

